General Information
Complete name : Timmy Time-Doctor Timmy (2012) DVDRip XviD BBnRG.avi
Format : AVI
Format/Info : Audio Video Interleave
File size : 1.04 GiB
Duration : 1h 20mn
Overall bit rate : 1 855 Kbps

Video
ID : 0
Format : MPEG-4 Visual
Format profile : Advanced Simple@L5
Format settings, BVOP : 2
Format settings, QPel : Yes
Format settings, GMC : No warppoints
Format settings, Matrix : Default (H.263)
Codec ID : XVID
Codec ID/Hint : XviD
Duration : 1h 20mn
Bit rate : 1 655 Kbps
Width : 720 pixels
Height : 400 pixels
Display aspect ratio : 16:9
Frame rate : 25.000 fps
Color space : YUV
Chroma subsampling : 4:2:0
Bit depth : 8 bits
Scan type : Progressive
Compression mode : Lossy
Bits/(Pixel*Frame) : 0.230
Stream size : 952 MiB (89%)
Writing library : XviD 1.2.1 (UTC 2008-12-04)

Audio
ID : 1
Format : AC-3
Format/Info : Audio Coding 3
Mode extension : CM (complete main)
Codec ID : 2000
Duration : 1h 20mn
Bit rate mode : Constant
Bit rate : 192 Kbps
Channel(s) : 2 channels
Channel positions : Front: L R
Sampling rate : 48.0 KHz
Bit depth : 16 bits
Compression mode : Lossy
Stream size : 110 MiB (10%)
Alignment : Aligned on interleaves
Interleave, duration : 64 ms (1.60 video frames)
Interleave, preload duration : 192 ms
Title : Timmy Time-Doctor Timmy (2012) BBnRG

Notes
Encoder: FridayToker
Source(s): DVDR-Legend-Rg (thanks)

Another fine release from BBnRG

Summary
80 min - Animation | Kids

Eight episodes from the preschool stop-motion animation series from Aardman Animation. Each episode follows the trials and tribulations of Timmy the Lamb and his various furry, feathered and spiky little friends as they go about their day at nursery school. In this instalment, Timmy dresses up as a doctor and pretends his friends are his patients but when a curious medical condition breaks out, Timmy finds himself looking for a cure.
 
http://s16.postimage.org/9cick6byd/g_Dt3u.png